<svg width="25" height="25" viewBox="0 0 56 56" fill="none" xmlns="http://www.w3.org/2000/svg">
<path d="M11.3334 53C6.73102 53 3.00006 49.269 3.00006 44.6667C3.00006 40.0643 6.73102 36.3333 11.3334 36.3333C15.9358 36.3333 19.6667 40.0643 19.6667 44.6667C19.6667 49.269 15.9358 53 11.3334 53Z" stroke="white" stroke-width="4.26337" stroke-linecap="round" stroke-linejoin="round"/>
<path d="M44.6667 19.6667C40.0643 19.6667 36.3333 15.9357 36.3333 11.3333C36.3333 6.73097 40.0643 3.00001 44.6667 3.00001C49.269 3.00001 53 6.73097 53 11.3333C53 15.9357 49.269 19.6667 44.6667 19.6667Z" stroke="white" stroke-width="4.26337" stroke-linecap="round" stroke-linejoin="round"/>
<path d="M44.6667 53V19.6667C44.6667 26.2971 42.0328 32.6559 37.3444 37.3443C32.656 42.0327 26.2971 44.6667 19.6667 44.6667" stroke="white" stroke-width="4.26337" stroke-linecap="round" stroke-linejoin="round"/>
</svg>
