<svg width="25" height="26" viewBox="0 0 25 26" fill="none" xmlns="http://www.w3.org/2000/svg">
<g clip-path="url(#clip0_32_413)">
<path d="M21.4063 4.18007C21.4063 3.94569 21.3281 3.78944 21.1719 3.63319C21.0156 3.47694 20.8594 3.39882 20.625 3.39882C20.3906 3.39882 20.2344 3.47694 20.0781 3.63319L17.9688 5.74257C16.4063 4.96132 14.6094 4.49257 12.5 4.25819C8.59375 4.64882 5.46875 6.05507 3.28125 8.55507C1.09375 11.0551 5.36843e-10 12.4613 5.59983e-10 12.8519C5.83122e-10 13.2426 1.17187 14.6488 3.28125 17.1488C3.82812 17.7738 4.375 18.3207 5.07813 18.7894L2.96875 20.9769C2.8125 21.1332 2.73438 21.2894 2.73438 21.5238C2.73438 21.7582 2.8125 21.9144 2.96875 22.0707C3.125 22.2269 3.28125 22.3051 3.51563 22.3051C3.75 22.3051 3.90625 22.2269 4.0625 22.0707L21.25 4.72694C21.3281 4.57069 21.4063 4.41444 21.4063 4.18007ZM5.625 17.0707C3.75 15.3519 2.5 13.9457 1.875 12.8519C2.57813 11.6801 3.82813 10.2738 5.625 8.63319C7.42188 6.99257 9.76563 5.97694 12.5 5.82069C14.0625 5.89882 15.5469 6.28944 16.7969 6.91444L15.4687 8.24257C14.6094 7.69569 13.6719 7.38319 12.5 7.38319C10.9375 7.38319 9.6875 7.93007 8.59375 8.94569C7.5 9.96132 7.03125 11.2894 7.03125 12.8519C7.03125 14.0238 7.34375 15.0394 7.89063 15.8988L6.25 17.6176C6.01563 17.4613 5.78125 17.2269 5.625 17.0707ZM9.0625 14.7269C8.75 14.1801 8.59375 13.5551 8.59375 12.8519C8.59375 11.7582 8.98438 10.8207 9.76563 10.1176C10.5469 9.41444 11.4063 8.94569 12.5 8.94569C13.2031 8.94569 13.8281 9.10194 14.2969 9.41444L9.0625 14.7269ZM21.7187 8.55507C21.4062 8.16444 21.0156 7.85194 20.7031 7.53944L19.5312 8.71132C21.3281 10.3519 22.5781 11.7582 23.2031 12.8519C22.5 14.0238 21.25 15.4301 19.4531 17.0707C17.6562 18.7113 15.2344 19.7269 12.5 19.8832C11.25 19.8051 10.0781 19.5707 9.06248 19.1801L7.8906 20.3519C9.29685 20.8988 10.7812 21.2894 12.5 21.4457C16.4062 21.0551 19.5312 19.6488 21.7187 17.1488C23.9062 14.6488 25 13.2426 25 12.8519C25 12.4613 23.8281 11.0551 21.7187 8.55507Z" fill="#666666"/>
<path d="M12.499 16.7582C12.1865 16.7582 11.874 16.6801 11.5615 16.6019L10.3115 17.8519C11.0146 18.1644 11.7178 18.3207 12.499 18.3207C14.0615 18.3207 15.3115 17.7738 16.4053 16.7582C17.4209 15.7426 17.9678 14.4144 17.9678 12.8519C17.9678 12.0707 17.8115 11.2894 17.499 10.6644L16.249 11.9144C16.3271 12.2269 16.4053 12.5394 16.4053 12.8519C16.4053 13.9457 16.0146 14.8832 15.2334 15.5863C14.4521 16.2894 13.5928 16.7582 12.499 16.7582Z" fill="#666666"/>
</g>
<defs>
<clipPath id="clip0_32_413">
<rect width="25" height="25" fill="white" transform="translate(0 0.35194)"/>
</clipPath>
</defs>
</svg>
